<svg width="78" height="11" viewBox="0 0 78 11" fill="none" xmlns="http://www.w3.org/2000/svg">
<path d="M63 11L66 11L78 -1.31134e-06L75 -1.04907e-06L63 11Z" fill="#4D00F2"/>
<path d="M49 11L52 11L64 -1.31134e-06L61 -1.04907e-06L49 11Z" fill="#4D00F2"/>
<path d="M35 11L38 11L50 6.31805e-06L47 6.58032e-06L35 11Z" fill="#4D00F2"/>
<path d="M21 11L24 11L36 6.31805e-06L33 6.58032e-06L21 11Z" fill="#4D00F2"/>
<path d="M7 11L10 11L22 6.31805e-06L19 6.58032e-06L7 11Z" fill="#4D00F2"/>
<path d="M56 11L59 11L71 -1.31134e-06L68 -1.04907e-06L56 11Z" fill="#4D00F2"/>
<path d="M42 11L45 11L57 6.31805e-06L54 6.58032e-06L42 11Z" fill="#4D00F2"/>
<path d="M28 11L31 11L43 6.31805e-06L40 6.58032e-06L28 11Z" fill="#4D00F2"/>
<path d="M14 11L17 11L29 6.31805e-06L26 6.58032e-06L14 11Z" fill="#4D00F2"/>
<path d="M0 11L3 11L15 6.31805e-06L12 6.58032e-06L0 11Z" fill="#4D00F2"/>
</svg>